<svg width="81" height="57" viewBox="0 0 81 57" fill="none" xmlns="http://www.w3.org/2000/svg">
<path d="M28.404 31.644C28.404 32.484 28.56 33.276 28.872 34.02C29.208 34.74 29.652 35.376 30.204 35.928C30.756 36.48 31.392 36.912 32.112 37.224C32.856 37.56 33.648 37.728 34.488 37.728V39.96C33.336 39.96 32.256 39.744 31.248 39.312C30.264 38.88 29.388 38.28 28.62 37.512C27.876 36.768 27.288 35.892 26.856 34.884C26.424 33.876 26.208 32.796 26.208 31.644V20.592H18.396V31.644C18.396 32.796 18.18 33.876 17.748 34.884C17.316 35.892 16.716 36.768 15.948 37.512C15.204 38.28 14.328 38.88 13.32 39.312C12.336 39.744 11.268 39.96 10.116 39.96C8.964 39.96 7.884 39.744 6.876 39.312C5.868 38.88 4.98 38.28 4.212 37.512C3.468 36.768 2.88 35.892 2.448 34.884C2.016 33.876 1.8 32.796 1.8 31.644H4.032C4.032 32.484 4.188 33.276 4.5 34.02C4.836 34.74 5.28 35.376 5.832 35.928C6.384 36.48 7.02 36.912 7.74 37.224C8.484 37.56 9.276 37.728 10.116 37.728C10.956 37.728 11.736 37.56 12.456 37.224C13.2 36.912 13.848 36.48 14.4 35.928C14.952 35.376 15.384 34.74 15.696 34.02C16.008 33.276 16.164 32.484 16.164 31.644V20.592H10.872C10.632 20.592 10.404 20.664 10.188 20.808C9.996 20.928 9.816 21.072 9.648 21.24C9.456 21.432 9.288 21.648 9.144 21.888L7.2 20.808C7.2 20.784 7.284 20.64 7.452 20.376C7.62 20.112 7.86 19.836 8.172 19.548C8.484 19.236 8.868 18.96 9.324 18.72C9.78 18.48 10.296 18.36 10.872 18.36H16.164V4.284C16.164 3.924 16.092 3.624 15.948 3.384C15.804 3.12 15.636 2.892 15.444 2.7C15.204 2.508 14.952 2.34 14.688 2.196L15.588 0.143998C15.612 0.167998 15.768 0.263998 16.056 0.431999C16.368 0.599998 16.692 0.851998 17.028 1.188C17.364 1.524 17.676 1.944 17.964 2.448C18.252 2.952 18.396 3.564 18.396 4.284V18.36H26.208V4.284C26.208 3.588 26.316 2.988 26.532 2.484C26.748 1.98 26.988 1.56 27.252 1.224C27.516 0.887999 27.756 0.635999 27.972 0.467998C28.212 0.299999 28.344 0.215999 28.368 0.215999L29.52 2.124C29.52 2.124 29.46 2.172 29.34 2.268C29.22 2.364 29.088 2.508 28.944 2.7C28.8 2.868 28.668 3.084 28.548 3.348C28.452 3.612 28.404 3.924 28.404 4.284V18.36H29.664V20.592H28.404V31.644ZM7.236 29.268L5.148 27.18L7.236 25.056L9.36 27.18L7.236 29.268ZM12.06 29.268L9.972 27.18L12.06 25.056L14.184 27.18L12.06 29.268ZM50.9445 33.804C50.9205 33.828 50.7765 33.96 50.5125 34.2C50.2725 34.416 49.9365 34.668 49.5045 34.956C49.0725 35.22 48.5685 35.46 47.9925 35.676C47.4405 35.892 46.8525 36 46.2285 36C45.3885 36 44.6685 35.844 44.0685 35.532C43.4925 35.22 43.0245 34.812 42.6645 34.308C42.2565 34.788 41.7285 35.196 41.0805 35.532C40.4565 35.844 39.6885 36 38.7765 36C37.6965 36 36.8325 35.748 36.1845 35.244C35.5605 34.74 35.0805 34.14 34.7445 33.444C34.4325 32.724 34.2285 31.992 34.1325 31.248C34.0365 30.504 33.9885 29.88 33.9885 29.376C33.9885 28.32 34.1085 27.336 34.3485 26.424C34.5885 25.512 34.8885 24.66 35.2485 23.868C35.6085 23.076 36.0045 22.344 36.4365 21.672C36.8925 20.976 37.3365 20.328 37.7685 19.728C38.4165 18.816 38.9685 17.964 39.4245 17.172C39.9045 16.38 40.1445 15.564 40.1445 14.724H42.3765C42.3765 15.9 42.0885 16.992 41.5125 18C40.9365 19.008 40.3005 20.016 39.6045 21.024C39.1965 21.624 38.7885 22.236 38.3805 22.86C37.9725 23.46 37.6005 24.096 37.2645 24.768C36.9525 25.44 36.7005 26.16 36.5085 26.928C36.3165 27.672 36.2205 28.488 36.2205 29.376C36.2205 30.48 36.3165 31.332 36.5085 31.932C36.7245 32.508 36.9645 32.94 37.2285 33.228C37.5165 33.492 37.8045 33.648 38.0925 33.696C38.3805 33.744 38.6085 33.768 38.7765 33.768C39.4005 33.768 39.8925 33.66 40.2525 33.444C40.6365 33.204 40.9245 32.94 41.1165 32.652C41.3325 32.34 41.4765 32.052 41.5485 31.788C41.6205 31.5 41.6685 31.32 41.6925 31.248V20.016H43.8885V31.284C43.8885 31.38 43.9005 31.572 43.9245 31.86C43.9725 32.124 44.0685 32.4 44.2125 32.688C44.3805 32.976 44.6205 33.228 44.9325 33.444C45.2445 33.66 45.6765 33.768 46.2285 33.768C46.6365 33.768 47.0205 33.696 47.3805 33.552C47.7645 33.384 48.1005 33.204 48.3885 33.012C48.7245 32.796 49.0485 32.544 49.3605 32.256L50.9445 33.804ZM58.4348 33.804C58.4108 33.828 58.2668 33.96 58.0028 34.2C57.7388 34.416 57.3908 34.668 56.9588 34.956C56.5508 35.22 56.0588 35.46 55.4828 35.676C54.9308 35.892 54.3428 36 53.7188 36C52.9268 36 52.2428 35.868 51.6668 35.604C51.1148 35.316 50.6468 34.944 50.2628 34.488C49.8788 34.032 49.5908 33.528 49.3988 32.976C49.2308 32.424 49.1467 31.86 49.1467 31.284V9.576C49.1467 9.216 49.0867 8.904 48.9667 8.64C48.8467 8.376 48.7267 8.148 48.6067 7.956C48.4387 7.764 48.2587 7.596 48.0667 7.452L49.1827 5.508C49.2067 5.532 49.3268 5.628 49.5428 5.796C49.7828 5.964 50.0348 6.216 50.2988 6.552C50.5868 6.888 50.8388 7.308 51.0548 7.812C51.2708 8.292 51.3788 8.88 51.3788 9.576V31.284C51.3788 31.38 51.3908 31.572 51.4148 31.86C51.4628 32.124 51.5588 32.4 51.7028 32.688C51.8708 32.976 52.1108 33.228 52.4228 33.444C52.7348 33.66 53.1668 33.768 53.7188 33.768C54.1268 33.768 54.5108 33.696 54.8708 33.552C55.2548 33.384 55.5908 33.204 55.8788 33.012C56.1668 32.82 56.3948 32.652 56.5628 32.508C56.7548 32.34 56.8508 32.256 56.8508 32.256L58.4348 33.804ZM73.2687 33.804C73.2447 33.828 73.1007 33.96 72.8367 34.2C72.5967 34.416 72.2607 34.668 71.8287 34.956C71.3967 35.22 70.8927 35.46 70.3167 35.676C69.7647 35.892 69.1767 36 68.5527 36C67.7127 36 66.9927 35.844 66.3927 35.532C65.8167 35.22 65.3487 34.812 64.9887 34.308C64.5807 34.788 64.0527 35.196 63.4047 35.532C62.7807 35.844 62.0127 36 61.1007 36C60.0207 36 59.1567 35.748 58.5087 35.244C57.8847 34.74 57.4047 34.14 57.0687 33.444C56.7567 32.724 56.5527 31.992 56.4567 31.248C56.3607 30.504 56.3127 29.88 56.3127 29.376C56.3127 28.32 56.4327 27.336 56.6727 26.424C56.9127 25.512 57.2127 24.66 57.5727 23.868C57.9327 23.076 58.3287 22.344 58.7607 21.672C59.2167 20.976 59.6607 20.328 60.0927 19.728C60.7407 18.816 61.2927 17.964 61.7487 17.172C62.2287 16.38 62.4687 15.564 62.4687 14.724H64.7007C64.7007 15.9 64.4127 16.992 63.8367 18C63.2607 19.008 62.6247 20.016 61.9287 21.024C61.5207 21.624 61.1127 22.236 60.7047 22.86C60.2967 23.46 59.9247 24.096 59.5887 24.768C59.2767 25.44 59.0247 26.16 58.8327 26.928C58.6407 27.672 58.5447 28.488 58.5447 29.376C58.5447 30.48 58.6407 31.332 58.8327 31.932C59.0487 32.508 59.2887 32.94 59.5527 33.228C59.8407 33.492 60.1287 33.648 60.4167 33.696C60.7047 33.744 60.9327 33.768 61.1007 33.768C61.7247 33.768 62.2167 33.66 62.5767 33.444C62.9607 33.204 63.2487 32.94 63.4407 32.652C63.6567 32.34 63.8007 32.052 63.8727 31.788C63.9447 31.5 63.9927 31.32 64.0167 31.248V20.016H66.2127V31.284C66.2127 31.38 66.2247 31.572 66.2487 31.86C66.2967 32.124 66.3927 32.4 66.5367 32.688C66.7047 32.976 66.9447 33.228 67.2567 33.444C67.5687 33.66 68.0007 33.768 68.5527 33.768C68.9607 33.768 69.3447 33.696 69.7047 33.552C70.0887 33.384 70.4247 33.204 70.7127 33.012C71.0487 32.796 71.3727 32.544 71.6847 32.256L73.2687 33.804ZM80.759 33.804C80.735 33.828 80.591 33.96 80.327 34.2C80.063 34.416 79.715 34.668 79.283 34.956C78.875 35.22 78.383 35.46 77.807 35.676C77.255 35.892 76.667 36 76.043 36C75.251 36 74.567 35.868 73.991 35.604C73.439 35.316 72.971 34.944 72.587 34.488C72.203 34.032 71.915 33.528 71.723 32.976C71.555 32.424 71.471 31.86 71.471 31.284V9.576C71.471 9.216 71.411 8.904 71.291 8.64C71.171 8.376 71.051 8.148 70.931 7.956C70.763 7.764 70.583 7.596 70.391 7.452L71.507 5.508C71.531 5.532 71.651 5.628 71.867 5.796C72.107 5.964 72.359 6.216 72.623 6.552C72.911 6.888 73.163 7.308 73.379 7.812C73.595 8.292 73.703 8.88 73.703 9.576V31.284C73.703 31.38 73.715 31.572 73.739 31.86C73.787 32.124 73.883 32.4 74.027 32.688C74.195 32.976 74.435 33.228 74.747 33.444C75.059 33.66 75.491 33.768 76.043 33.768C76.451 33.768 76.835 33.696 77.195 33.552C77.579 33.384 77.915 33.204 78.203 33.012C78.491 32.82 78.719 32.652 78.887 32.508C79.079 32.34 79.175 32.256 79.175 32.256L80.759 33.804Z" fill="white"/>
<path d="M10.768 46.4C10.768 45.3013 11.008 44.32 11.488 43.456C11.968 42.5813 12.624 41.904 13.456 41.424C14.288 40.9333 15.216 40.688 16.24 40.688C17.488 40.688 18.5547 40.9867 19.44 41.584C20.336 42.1707 20.9867 43.0027 21.392 44.08H20.08C19.76 43.3227 19.2693 42.7307 18.608 42.304C17.9573 41.8773 17.168 41.664 16.24 41.664C15.4187 41.664 14.6773 41.856 14.016 42.24C13.3653 42.624 12.8533 43.1787 12.48 43.904C12.1067 44.6187 11.92 45.4507 11.92 46.4C11.92 47.3493 12.1067 48.1813 12.48 48.896C12.8533 49.6107 13.3653 50.16 14.016 50.544C14.6773 50.928 15.4187 51.12 16.24 51.12C17.168 51.12 17.9573 50.912 18.608 50.496C19.2693 50.0693 19.76 49.4827 20.08 48.736H21.392C20.9867 49.8027 20.336 50.6293 19.44 51.216C18.544 51.8027 17.4773 52.096 16.24 52.096C15.216 52.096 14.288 51.856 13.456 51.376C12.624 50.8853 11.968 50.208 11.488 49.344C11.008 48.48 10.768 47.4987 10.768 46.4ZM31.5278 47.184C31.5278 47.568 31.5171 47.8613 31.4958 48.064H24.2478C24.2798 48.7253 24.4398 49.2907 24.7278 49.76C25.0158 50.2293 25.3944 50.5867 25.8638 50.832C26.3331 51.0667 26.8451 51.184 27.3998 51.184C28.1251 51.184 28.7331 51.008 29.2238 50.656C29.7251 50.304 30.0558 49.8293 30.2158 49.232H31.3998C31.1864 50.0853 30.7278 50.784 30.0238 51.328C29.3304 51.8613 28.4558 52.128 27.3998 52.128C26.5784 52.128 25.8424 51.9467 25.1918 51.584C24.5411 51.2107 24.0291 50.688 23.6558 50.016C23.2931 49.3333 23.1118 48.5387 23.1118 47.632C23.1118 46.7253 23.2931 45.9307 23.6558 45.248C24.0184 44.5653 24.5251 44.0427 25.1758 43.68C25.8264 43.3173 26.5678 43.136 27.3998 43.136C28.2318 43.136 28.9571 43.3173 29.5758 43.68C30.2051 44.0427 30.6851 44.5333 31.0158 45.152C31.3571 45.76 31.5278 46.4373 31.5278 47.184ZM30.3918 47.152C30.4024 46.5013 30.2691 45.9467 29.9918 45.488C29.7251 45.0293 29.3571 44.6827 28.8878 44.448C28.4184 44.2133 27.9064 44.096 27.3518 44.096C26.5198 44.096 25.8104 44.3627 25.2238 44.896C24.6371 45.4293 24.3118 46.1813 24.2478 47.152H30.3918ZM34.6969 44.816C34.9422 44.272 35.3155 43.8507 35.8169 43.552C36.3289 43.2533 36.9529 43.104 37.6889 43.104V44.272H37.3849C36.5742 44.272 35.9235 44.4907 35.4329 44.928C34.9422 45.3653 34.6969 46.096 34.6969 47.12V52H33.5769V43.264H34.6969V44.816ZM40.8298 44.208V49.632C40.8298 50.1653 40.9311 50.5333 41.1338 50.736C41.3364 50.9387 41.6938 51.04 42.2057 51.04H43.2298V52H42.0298C41.2404 52 40.6538 51.8187 40.2698 51.456C39.8858 51.0827 39.6938 50.4747 39.6938 49.632V44.208H38.4778V43.264H39.6938V41.072H40.8298V43.264H43.2298V44.208H40.8298ZM45.6369 41.616C45.4129 41.616 45.2209 41.536 45.0609 41.376C44.9009 41.216 44.8209 41.0187 44.8209 40.784C44.8209 40.5493 44.9009 40.3573 45.0609 40.208C45.2209 40.048 45.4129 39.968 45.6369 39.968C45.8609 39.968 46.0529 40.048 46.2129 40.208C46.3729 40.3573 46.4529 40.5493 46.4529 40.784C46.4529 41.0187 46.3729 41.216 46.2129 41.376C46.0529 41.536 45.8609 41.616 45.6369 41.616ZM46.1969 43.264V52H45.0769V43.264H46.1969ZM52.1731 44.208H50.1411V52H49.0211V44.208H47.8051V43.264H49.0211V42.656C49.0211 41.7067 49.2611 41.008 49.7411 40.56C50.2318 40.112 51.0211 39.888 52.1091 39.888V40.848C51.3838 40.848 50.8718 40.9867 50.5731 41.264C50.2851 41.5413 50.1411 42.0053 50.1411 42.656V43.264H52.1731V44.208ZM54.4963 41.616C54.2723 41.616 54.0803 41.536 53.9203 41.376C53.7603 41.216 53.6803 41.0187 53.6803 40.784C53.6803 40.5493 53.7603 40.3573 53.9203 40.208C54.0803 40.048 54.2723 39.968 54.4963 39.968C54.7203 39.968 54.9123 40.048 55.0723 40.208C55.2323 40.3573 55.3123 40.5493 55.3123 40.784C55.3123 41.0187 55.2323 41.216 55.0723 41.376C54.9123 41.536 54.7203 41.616 54.4963 41.616ZM55.0563 43.264V52H53.9363V43.264H55.0563ZM65.4965 47.184C65.4965 47.568 65.4858 47.8613 65.4645 48.064H58.2165C58.2485 48.7253 58.4085 49.2907 58.6965 49.76C58.9845 50.2293 59.3632 50.5867 59.8325 50.832C60.3018 51.0667 60.8138 51.184 61.3685 51.184C62.0938 51.184 62.7018 51.008 63.1925 50.656C63.6938 50.304 64.0245 49.8293 64.1845 49.232H65.3685C65.1552 50.0853 64.6965 50.784 63.9925 51.328C63.2992 51.8613 62.4245 52.128 61.3685 52.128C60.5472 52.128 59.8112 51.9467 59.1605 51.584C58.5098 51.2107 57.9978 50.688 57.6245 50.016C57.2618 49.3333 57.0805 48.5387 57.0805 47.632C57.0805 46.7253 57.2618 45.9307 57.6245 45.248C57.9872 44.5653 58.4938 44.0427 59.1445 43.68C59.7952 43.3173 60.5365 43.136 61.3685 43.136C62.2005 43.136 62.9258 43.3173 63.5445 43.68C64.1738 44.0427 64.6538 44.5333 64.9845 45.152C65.3258 45.76 65.4965 46.4373 65.4965 47.184ZM64.3605 47.152C64.3712 46.5013 64.2378 45.9467 63.9605 45.488C63.6938 45.0293 63.3258 44.6827 62.8565 44.448C62.3872 44.2133 61.8752 44.096 61.3205 44.096C60.4885 44.096 59.7792 44.3627 59.1925 44.896C58.6058 45.4293 58.2805 46.1813 58.2165 47.152H64.3605ZM67.0336 47.616C67.0336 46.72 67.215 45.936 67.5776 45.264C67.9403 44.5813 68.4363 44.0587 69.0656 43.696C69.7056 43.3227 70.4256 43.136 71.2256 43.136C71.9936 43.136 72.687 43.3227 73.3056 43.696C73.9243 44.0693 74.3776 44.5547 74.6656 45.152V40.16H75.7856V52H74.6656V50.048C74.399 50.656 73.9616 51.1573 73.3536 51.552C72.7456 51.936 72.031 52.128 71.2096 52.128C70.4096 52.128 69.6896 51.9413 69.0496 51.568C68.4203 51.1947 67.9243 50.6667 67.5616 49.984C67.2096 49.3013 67.0336 48.512 67.0336 47.616ZM74.6656 47.632C74.6656 46.928 74.5216 46.3093 74.2336 45.776C73.9456 45.2427 73.551 44.832 73.0496 44.544C72.559 44.256 72.015 44.112 71.4176 44.112C70.799 44.112 70.2443 44.2507 69.7536 44.528C69.263 44.8053 68.8736 45.2107 68.5856 45.744C68.3083 46.2667 68.1696 46.8907 68.1696 47.616C68.1696 48.3307 68.3083 48.96 68.5856 49.504C68.8736 50.0373 69.263 50.448 69.7536 50.736C70.2443 51.0133 70.799 51.152 71.4176 51.152C72.015 51.152 72.559 51.008 73.0496 50.72C73.551 50.432 73.9456 50.0213 74.2336 49.488C74.5216 48.9547 74.6656 48.336 74.6656 47.632Z" fill="white"/>
</svg>
